<svg xmlns="http://www.w3.org/2000/svg" width="688" height="666"><path d="M684.4 329.2L608.9 241.2 684.4 153.3C686.5 150.8 687.4 147.6 686.8 144.4 686.3 141.3 684.3 138.5 681.5 137L437 1.4C432.8-1 427.6-0.2 424.2 3.1L350 76.6 276.4 3.1C273-0.3 267.6-1 263.4 1.4L5.4 150.6C2.4 152.3 0.4 155.4 0 158.9 -0.3 162.4 1.1 165.8 3.8 168L91.2 242.8 15.7 343.3C13.9 345.8 13.2 348.9 13.8 352 14.5 355 16.4 357.6 19.1 359.1L94.3 400.8C94 401.8 93.7 402.8 93.7 404L93.7 503.1C93.7 516.2 100.7 528.4 112.1 535L330.5 660.9C336.4 664.3 343 666 349.6 666 349.6 666 349.7 666 349.8 666 349.8 666 349.9 666 349.9 666 350.1 666 350.1 665.9 350.3 665.9 356.6 665.8 363 664.2 368.7 660.9L586.4 535.4C598.2 528.6 605.5 515.9 605.5 502.3L605.5 391.9 681.9 345.3C684.6 343.7 686.4 340.9 686.9 337.8 687.4 334.7 686.5 331.6 684.4 329.2ZM339.2 358.4L127.1 240.8 339.2 111.4 339.2 358.4ZM360.7 111L573.5 240.8 360.7 358.8 360.7 111ZM433.6 24L659.6 149.3 592.6 227.3 367.1 89.8 433.6 24ZM267 24.1L333.1 90 106.9 228 29.2 161.6 267 24.1ZM108.8 255.1L333.9 380 265.8 471.4 40.3 346.3 108.8 255.1ZM122.8 516.4C118.1 513.7 115.1 508.6 115.1 503.1L115.1 412.3 263.6 494.7C265.2 495.6 267 496 268.8 496 272.1 496 275.3 494.5 277.4 491.7L339.2 408.8 339.2 641.2 122.8 516.4ZM584 502.3C584 508.3 580.8 513.8 575.7 516.8L360.7 640.8 360.7 408.5 423.2 491.8C425.3 494.5 428.5 496 431.8 496 433.7 496 435.6 495.5 437.4 494.5L584 405 584 502.3ZM434.5 471.1L366.3 380.2 592.3 254.9 659.9 333.6 434.5 471.1Z" fill="rgb(249, 240, 231)"/></svg>