<svg xmlns="http://www.w3.org/2000/svg" width="33" height="48"><path d="M16.5 29.8C21.4 29.8 25.4 33.9 25.4 38.9 25.4 43.9 21.4 48 16.5 48 11.6 48 7.6 43.9 7.6 38.9 7.6 33.9 11.6 29.8 16.5 29.8Z" fill="rgb(255, 156, 0)"/><path d="M16.5 0C7.4 0 0 7.2 0 16.1 0 18.5 0.5 20.7 1.4 22.7 5.6 31.5 13.5 38.6 15.8 41.2 16 41.4 16.2 41.5 16.5 41.5 16.8 41.5 17 41.4 17.2 41.2 19.5 38.6 27.4 31.5 31.6 22.7 32.5 20.7 33 18.5 33 16.1 33 7.2 25.6 0 16.5 0ZM16.5 24.5C11.8 24.5 7.9 20.7 7.9 16.1 7.9 11.5 11.8 7.7 16.5 7.7 21.2 7.7 25.1 11.5 25.1 16.1 25.1 20.7 21.2 24.5 16.5 24.5Z" fill="rgb(8, 17, 44)"/></svg>