<svg xmlns="http://www.w3.org/2000/svg" width="18" height="18"><path d="M18 14.2C18 14.5 17.9 14.8 17.7 15L15.2 17.5C15.1 17.6 14.9 17.7 14.7 17.8 14.6 17.9 14.4 18 14.2 18 14.2 18 14.1 18 14.1 18 14 18 13.9 18 13.8 18 13.6 18 13.2 18 12.7 17.9 12.1 17.8 11.5 17.6 10.7 17.3 9.9 16.9 9 16.5 8 15.8 7 15.2 6 14.3 4.9 13.1 4 12.3 3.2 11.4 2.7 10.6 2.1 9.8 1.6 9.1 1.2 8.4 0.9 7.7 0.6 7.1 0.4 6.6 0.3 6 0.1 5.5 0.1 5.1 0 4.7 0 4.4 0 4.2 0 3.9 0 3.8 0 3.8 0 3.6 0.1 3.4 0.2 3.3 0.3 3.1 0.4 2.9 0.5 2.8L3.1 0.3C3.2 0.1 3.4 0 3.7 0 3.8 0 4 0 4.1 0.1 4.2 0.2 4.3 0.4 4.4 0.5L6.5 4.4C6.6 4.6 6.6 4.8 6.6 5 6.5 5.3 6.4 5.5 6.2 5.6L5.3 6.6C5.3 6.6 5.3 6.6 5.2 6.7 5.2 6.8 5.2 6.8 5.2 6.8 5.3 7.1 5.4 7.4 5.5 7.8 5.7 8.1 5.9 8.4 6.3 8.9 6.6 9.3 7 9.8 7.6 10.4 8.2 11 8.7 11.4 9.1 11.8 9.6 12.1 9.9 12.3 10.2 12.5 10.5 12.6 10.8 12.7 10.9 12.7L11.2 12.8C11.2 12.8 11.2 12.8 11.3 12.8 11.4 12.7 11.4 12.7 11.4 12.7L12.5 11.6C12.7 11.4 13 11.3 13.3 11.3 13.5 11.3 13.7 11.3 13.8 11.4L13.8 11.4 17.5 13.6C17.8 13.7 17.9 14 18 14.2Z" fill="rgb(255, 156, 0)"/></svg>