<svg xmlns="http://www.w3.org/2000/svg" width="18" height="18"><path d="M9.2 0C4.3 0 0.3 4 0.3 8.9 0.3 10.4 0.7 11.9 1.5 13.2L0 17.6C0 17.7 0 17.8 0.1 17.9 0.1 18 0.2 18 0.3 18 0.3 18 0.4 18 0.4 18L5.1 16.7C6.4 17.4 7.8 17.7 9.2 17.7 14 17.7 18 13.7 18 8.9 18 4 14 0 9.2 0ZM5.1 10.2C4.4 10.2 3.9 9.7 3.9 9 3.9 8.3 4.4 7.8 5.1 7.8 5.8 7.8 6.3 8.3 6.3 9 6.3 9.7 5.8 10.2 5.1 10.2ZM9 10.2C8.3 10.2 7.8 9.7 7.8 9 7.8 8.3 8.3 7.8 9 7.8 9.7 7.8 10.2 8.3 10.2 9 10.2 9.7 9.7 10.2 9 10.2ZM12.9 10.2C12.2 10.2 11.7 9.7 11.7 9 11.7 8.3 12.2 7.8 12.9 7.8 13.6 7.8 14.1 8.3 14.1 9 14.1 9.7 13.6 10.2 12.9 10.2Z" fill="rgb(255, 156, 0)"/></svg>